<svg width="20" height="20" viewBox="0 0 20 20" fill="none" xmlns="http://www.w3.org/2000/svg">
<g id="arrow logo">
<path id="Vector" d="M5.76563 8.23047C5.47266 8.52344 5.47266 9.00391 5.76563 9.29688L9.50391 13.0234C9.78906 13.3086 10.25 13.3164 10.543 13.0469L14.2266 9.375C14.375 9.22656 14.4492 9.03516 14.4492 8.83985C14.4492 8.64844 14.375 8.45313 14.2305 8.3086C13.9375 8.01563 13.4609 8.01172 13.1641 8.3086L10 11.4258L6.83203 8.22657C6.53906 7.9336 6.0625 7.9336 5.76563 8.23047Z" fill="black"/>
<path id="Vector_2" d="M1.875 10C1.875 14.4883 5.51172 18.125 10 18.125C14.4883 18.125 18.125 14.4883 18.125 10C18.125 5.51172 14.4883 1.875 10 1.875C5.51172 1.875 1.875 5.51172 1.875 10ZM14.8594 5.14063C16.1602 6.4375 16.875 8.16406 16.875 10C16.875 11.8359 16.1602 13.5625 14.8594 14.8594C13.5625 16.1602 11.8359 16.875 10 16.875C8.16406 16.875 6.4375 16.1602 5.14063 14.8594C3.83984 13.5625 3.125 11.8359 3.125 10C3.125 8.16406 3.83984 6.4375 5.14063 5.14063C6.4375 3.83984 8.16406 3.125 10 3.125C11.8359 3.125 13.5625 3.83984 14.8594 5.14063Z" fill="black"/>
</g>
</svg>
